<?xml version="1.0" ?><svg width="512px" height="512px" viewBox="0 0 512 512" id="icon" xmlns="http://www.w3.org/2000/svg"><title/><path d="M345.64,142.68a5.52,5.52,0,0,0,3.25,1,5.59,5.59,0,0,0,3.25-10.13,156,156,0,0,0-91.37-29.31,157.53,157.53,0,0,0-35.83,4.11,5.59,5.59,0,0,0,2.54,10.88,146.67,146.67,0,0,1,33.29-3.82A144.89,144.89,0,0,1,345.64,142.68Z"/><path d="M189.85,133.83a5.58,5.58,0,1,0-5.44-9.75,157.27,157.27,0,0,0-80.66,137.23,155.5,155.5,0,0,0,32.9,96.19,5.58,5.58,0,0,0,8.83-6.84,144.46,144.46,0,0,1-30.56-89.35A146.09,146.09,0,0,1,189.85,133.83Z"/><path d="M75.63,381.92a5.59,5.59,0,0,0-7.25,3.15c-7.21,18.24-7.26,30.57-.13,37.69q5.31,5.33,14.64,5.33c11.22,0,26.89-5.77,47.29-17.35,28.22-16,62.85-41.78,100.14-74.51a5.59,5.59,0,1,0-7.37-8.4c-85.89,75.4-137.56,96.28-146.8,87-1.63-1.62-4.62-7.37,2.62-25.69A5.6,5.6,0,0,0,75.63,381.92Z"/><path d="M356,83.28q-1.86,1.09-3.76,2.25a5.59,5.59,0,0,0,5.8,9.55c1.22-.75,2.44-1.47,3.64-2.18A5.59,5.59,0,1,0,356,83.28Z"/><path d="M276.77,277.31c-8.85,8.85-17.87,17.59-26.82,26a5.59,5.59,0,0,0,7.65,8.15c9-8.48,18.14-17.31,27.07-26.24,46.48-46.48,86.49-93.93,112.67-133.62,28.4-43,36.77-70.91,24.88-82.8-7.65-7.65-21.34-7-41.86,1.86a5.59,5.59,0,0,0,4.45,10.25c14.72-6.39,25.76-8,29.51-4.21,5.29,5.29,1.58,26.48-26.3,68.75C362.24,184.52,322.73,231.35,276.77,277.31Z"/><path d="M88.62,363.17a5.59,5.59,0,0,0,4.8-2.72c.58-1,1.18-2,1.79-3a5.59,5.59,0,0,0-9.53-5.84c-.63,1-1.25,2.05-1.85,3.06a5.58,5.58,0,0,0,1.93,7.66A5.5,5.5,0,0,0,88.62,363.17Z"/><path d="M320.19,94a5.61,5.61,0,0,0,3.07-.92c5-3.33,10.09-6.54,15-9.55A5.59,5.59,0,0,0,332.43,74c-5,3.08-10.18,6.36-15.32,9.75A5.59,5.59,0,0,0,320.19,94Z"/><path d="M318.06,310l-2.92,2.94a5.59,5.59,0,1,0,7.92,7.88l2.94-3a5.58,5.58,0,0,0-7.94-7.85Z"/><path d="M143.29,457.53c22.83-11.12,47.89-26.57,73.83-45.36a157.28,157.28,0,0,0,43.65,6.17c86.58,0,157-70.44,157-157a157,157,0,0,0-6-43,3.56,3.56,0,0,0-.19-.49c58-79.8,80.22-146.31,54.28-172.25-18.09-18.09-54.64-13.71-105.7,12.68a5.58,5.58,0,1,0,5.12,9.92c45-23.24,78.77-28.6,92.68-14.7,12.73,12.73,9.17,42.89-9.78,82.75C428.38,178,393,228.18,348.69,277.49A5.58,5.58,0,1,0,357,285c17-18.93,32.43-37.56,46.1-55.6a146.66,146.66,0,0,1,3.53,31.95c0,80.43-65.43,145.85-145.85,145.85a146.47,146.47,0,0,1-32.07-3.55c20.63-15.57,41.68-33.14,62.5-52.23a5.59,5.59,0,1,0-7.55-8.24c-50.39,46.21-102,83.27-145.25,104.35C97.15,467.58,66,471.61,53,458.56a22.74,22.74,0,0,1-4.58-6.66,5.58,5.58,0,1,0-10.15,4.66,33.76,33.76,0,0,0,6.83,9.9c7.28,7.28,17.6,10.9,30.68,10.9C93.43,477.36,116.18,470.73,143.29,457.53Z"/><path d="M40.94,428a5.6,5.6,0,0,0,5.51-4.69C50.77,397,68,360.3,95.08,320a5.59,5.59,0,0,0-9.28-6.22C57.48,356,40.07,393.26,35.43,421.54A5.58,5.58,0,0,0,40,428,5.69,5.69,0,0,0,40.94,428Z"/></svg>