<?xml version="1.0" ?><svg width="128px" height="128px" viewBox="0 0 128 128" id="Layer_1" style="enable-background:new 0 0 128 128;" version="1.1" xml:space="preserve" xmlns="http://www.w3.org/2000/svg" xmlns:xlink="http://www.w3.org/1999/xlink"><style type="text/css">
	.st0{fill:#581166;}
	.st1{fill:#E83A3A;}
	.st2{fill:#FF5855;}
	.st3{opacity:0.5;}
	.st4{fill:#FFDA8E;}
	.st5{fill:#FFFFFF;}
	.st6{fill:#EABA65;}
	.st7{fill:#E6E6E6;}
	.st8{fill:#460A54;}
	.st9{fill:none;}
	.st10{fill:none;stroke:#581166;stroke-width:2;stroke-linecap:round;stroke-linejoin:round;stroke-miterlimit:10;}
	.st11{fill:#F2F2F2;}
</style><g><g><g><rect class="st2" height="90.8" width="86.2" x="21.8" y="11.1"/></g></g></g><g><g><g><path class="st0" d="M108,103.8H21.8c-1,0-1.9-0.8-1.9-1.9V11.1c0-1,0.8-1.9,1.9-1.9H108c1,0,1.9,0.8,1.9,1.9v90.8     C109.9,102.9,109,103.8,108,103.8z M23.6,100h82.5V13H23.6V100z"/></g></g></g><g><g><g><rect class="st5" height="63.9" width="70.6" x="29.6" y="17.8"/></g></g><g><g><path class="st0" d="M100.2,83.6H29.6c-1,0-1.9-0.8-1.9-1.9V17.8c0-1,0.8-1.9,1.9-1.9h70.6c1,0,1.9,0.8,1.9,1.9v63.9     C102,82.8,101.2,83.6,100.2,83.6z M31.5,79.8h66.8V19.7H31.5V79.8z"/></g></g></g><g><g><g><polygon class="st4" points="29.6,81.7 53.7,49.8 77.7,81.7    "/></g></g><g><g><path class="st0" d="M77.7,83.6H29.6c-0.7,0-1.4-0.4-1.7-1c-0.3-0.6-0.2-1.4,0.2-2l24.1-32c0.7-0.9,2.3-0.9,3,0l24.1,32     c0.4,0.6,0.5,1.3,0.2,2C79.1,83.2,78.4,83.6,77.7,83.6z M33.4,79.8H74l-20.3-27L33.4,79.8z"/></g></g></g><g><g><g><path class="st0" d="M77.7,83.6H29.6c-0.7,0-1.4-0.4-1.7-1c-0.3-0.6-0.2-1.4,0.2-2l24.1-32c0.7-0.9,2.3-0.9,3,0l24.1,32     c0.4,0.6,0.5,1.3,0.2,2C79.1,83.2,78.4,83.6,77.7,83.6z M33.4,79.8H74l-20.3-27L33.4,79.8z"/></g></g></g><g><g><g><polygon class="st4" points="52.1,81.7 76.1,49.8 100.2,81.7    "/></g></g><g><g><path class="st0" d="M100.2,83.6H52.1c-0.7,0-1.4-0.4-1.7-1c-0.3-0.6-0.2-1.4,0.2-2l24.1-32c0.7-0.9,2.3-0.9,3,0l24.1,32     c0.4,0.6,0.5,1.3,0.2,2C101.5,83.2,100.9,83.6,100.2,83.6z M55.8,79.8h40.6l-20.3-27L55.8,79.8z"/></g></g></g><g><g><g><path class="st0" d="M100.2,83.6H52.1c-0.7,0-1.4-0.4-1.7-1c-0.3-0.6-0.2-1.4,0.2-2l24.1-32c0.7-0.9,2.3-0.9,3,0l24.1,32     c0.4,0.6,0.5,1.3,0.2,2C101.5,83.2,100.9,83.6,100.2,83.6z M55.8,79.8h40.6l-20.3-27L55.8,79.8z"/></g></g></g><g><g><g><circle class="st4" cx="64.9" cy="33" r="9.3"/></g></g><g><g><path class="st0" d="M64.9,44.2c-6.2,0-11.2-5-11.2-11.2c0-6.2,5-11.2,11.2-11.2s11.2,5,11.2,11.2C76.1,39.2,71.1,44.2,64.9,44.2     z M64.9,25.6c-4.1,0-7.4,3.3-7.4,7.4c0,4.1,3.3,7.4,7.4,7.4c4.1,0,7.4-3.3,7.4-7.4C72.3,28.9,69,25.6,64.9,25.6z"/></g></g></g><g><g><g><path class="st0" d="M99,90.6H81.3c-1,0-1.9-0.8-1.9-1.9s0.8-1.9,1.9-1.9H99c1,0,1.9,0.8,1.9,1.9S100,90.6,99,90.6z"/></g></g></g><g><g><g><path class="st0" d="M99,97.1h-7.9c-1,0-1.9-0.8-1.9-1.9s0.8-1.9,1.9-1.9H99c1,0,1.9,0.8,1.9,1.9S100,97.1,99,97.1z"/></g></g></g><g class="st3"><g><g><polyline class="st0" points="62.4,60.9 46.6,81.7 51.2,81.7 64.5,64    "/></g></g></g></svg>